<?xml version="1.0" standalone="no"?>
<!DOCTYPE svg PUBLIC "-//W3C//DTD SVG 20010904//EN"
 "http://www.w3.org/TR/2001/REC-SVG-20010904/DTD/svg10.dtd">
<svg version="1.0" xmlns="http://www.w3.org/2000/svg"
 width="997.000000pt" height="1002.000000pt" viewBox="0 0 997.000000 1002.000000"
 preserveAspectRatio="xMidYMid meet">

<g transform="translate(0.000000,1002.000000) scale(0.100000,-0.100000)"
fill="#6366F1" stroke="none">
<path d="M4900 9838 c-58 -31 -67 -144 -13 -185 22 -17 32 -397 33 -1224 l0
-656 -538 -534 c-296 -294 -554 -547 -575 -563 l-37 -28 -77 68 c-123 110
-1509 1497 -1622 1623 -120 135 -161 194 -161 232 0 36 -43 86 -80 94 -39 9
-97 -20 -121 -59 -47 -77 0 -159 103 -181 55 -11 171 -119 908 -851 741 -735
1038 -1024 1052 -1024 6 0 22 10 35 22 l23 21 0 -149 0 -150 -45 -44 -45 -44
0 -193 0 -193 -270 0 -271 0 -270 192 -270 192 158 158 c87 87 161 158 164
158 11 0 190 -187 230 -240 21 -28 43 -70 49 -93 17 -65 32 -89 67 -104 78
-32 149 5 160 83 9 72 -26 115 -108 129 -54 8 -106 47 -261 195 l-140 133
-188 -188 -189 -189 -39 28 c-58 40 -551 541 -605 615 -26 35 -47 73 -47 85 0
32 -35 83 -69 101 -81 41 -142 4 -149 -93 -4 -70 8 -90 68 -103 57 -13 141
-74 265 -194 l100 -96 -82 55 -81 56 -171 0 -171 0 0 -142 -1 -143 -44 50
c-44 50 -58 75 -70 129 -3 16 -21 44 -40 63 -84 84 -218 0 -172 -108 19 -44
43 -65 92 -78 42 -11 85 -42 179 -128 l56 -52 0 -148 -1 -148 -327 330 c-474
478 -562 580 -562 649 0 33 -44 83 -79 91 -63 14 -141 -51 -141 -117 0 -14 12
-41 27 -59 27 -32 87 -64 102 -54 14 8 228 -193 618 -579 l363 -359 0 -123 c0
-78 -4 -124 -10 -124 -15 0 -742 727 -854 855 -57 65 -108 135 -125 170 -32
66 -61 98 -105 115 -31 11 -35 9 -89 -39 -16 -15 -35 -38 -43 -53 -13 -24 -13
-32 0 -57 20 -37 82 -91 105 -91 26 0 98 -56 253 -197 153 -139 664 -653 786
-790 l82 -93 0 -225 0 -225 -377 0 c-208 0 -406 4 -440 9 -43 7 -80 21 -120
45 -75 46 -109 47 -152 2 -26 -27 -35 -46 -38 -83 -7 -69 16 -95 88 -100 46
-4 62 0 114 28 l60 32 240 9 c132 5 326 7 430 6 l190 -3 3 -162 2 -163 -442 0
c-244 1 -532 5 -641 9 -184 8 -200 11 -247 35 -66 35 -101 34 -139 -4 -56 -57
-48 -132 18 -179 39 -28 59 -26 112 8 28 19 68 34 109 40 40 7 288 11 648 11
l582 0 0 -160 0 -160 -172 1 c-239 0 -318 10 -366 43 -53 36 -128 37 -164 1
-34 -34 -41 -76 -22 -126 29 -71 107 -90 176 -42 53 36 99 42 341 42 l207 1 0
-160 0 -160 -457 0 c-556 1 -676 8 -730 44 -71 49 -161 29 -183 -40 -22 -67
17 -136 85 -148 29 -6 45 -2 81 19 67 39 154 45 707 45 l497 0 0 -240 0 -240
104 0 104 0 49 -36 c104 -78 175 -164 187 -224 13 -68 74 -130 129 -130 34 0
83 43 97 85 25 76 -15 138 -97 149 -55 7 -148 66 -192 122 l-23 29 338 3 338
2 114 -112 c132 -131 394 -407 447 -472 21 -26 42 -67 50 -98 19 -69 42 -88
111 -88 76 0 109 29 109 98 0 65 -35 105 -110 127 -66 19 -149 89 -408 344
-179 176 -196 196 -173 199 l26 3 0 322 0 322 460 -460 460 -460 0 -1060 c-1
-583 -5 -1142 -10 -1243 -7 -161 -11 -187 -31 -220 -33 -55 -40 -91 -28 -134
10 -40 55 -78 92 -78 43 0 90 33 109 78 l20 44 -27 51 c-21 40 -29 75 -36 152
-6 55 -13 628 -18 1273 l-7 1173 -492 492 -492 492 0 135 1 135 115 -120 c148
-155 296 -320 310 -348 7 -12 20 -41 30 -65 54 -132 245 -66 210 73 -8 32 -55
75 -82 75 -44 0 -135 77 -413 346 -146 142 -191 194 -166 194 3 0 168 -108
368 -241 326 -217 373 -252 469 -347 102 -101 108 -105 126 -89 10 9 22 17 26
17 4 0 178 -115 386 -255 l379 -255 106 0 107 0 -126 -131 -126 -132 0 -810 0
-811 478 -480 c263 -265 496 -506 519 -536 23 -30 47 -76 53 -103 24 -93 115
-128 181 -69 25 23 33 38 36 78 7 67 -20 100 -97 120 -29 8 -72 26 -94 41 -50
35 -268 245 -693 667 l-333 331 0 770 1 770 144 148 144 147 81 0 80 0 0 252
0 251 227 -6 c124 -4 426 -7 670 -7 l443 0 0 -245 0 -245 198 0 197 -1 -63
-59 c-84 -80 -106 -94 -153 -92 -32 2 -46 -5 -79 -34 -67 -61 -61 -139 13
-184 71 -44 138 -11 152 73 4 23 13 54 21 68 21 42 114 139 178 186 l58 43
126 0 125 0 -24 -26 c-50 -53 -137 -111 -178 -118 -46 -7 -103 -51 -120 -95
-37 -88 97 -179 179 -121 35 25 62 82 55 113 -5 17 4 35 33 72 39 49 145 141
189 164 13 6 72 11 144 11 l122 0 -249 -252 c-137 -139 -280 -288 -316 -332
-58 -67 -66 -81 -57 -98 17 -32 147 -173 391 -424 241 -249 294 -313 304 -365
10 -49 21 -67 54 -84 50 -26 97 -20 136 19 26 26 34 42 34 71 0 71 -35 105
-122 120 -47 7 -101 48 -254 191 -125 118 -377 385 -421 448 -22 29 -24 40
-16 59 15 31 322 355 488 514 78 76 146 133 157 133 10 0 22 10 28 24 5 13 13
27 19 30 16 10 144 -109 481 -450 435 -440 549 -568 550 -619 1 -52 61 -105
118 -105 26 0 43 9 69 35 33 33 35 39 30 81 -6 56 -37 91 -93 105 -59 15 -162
107 -609 548 -455 448 -531 517 -551 500 -12 -10 -14 13 -14 161 l0 172 193
-185 c302 -290 855 -853 930 -947 37 -46 67 -92 67 -102 0 -74 67 -126 144
-113 61 9 76 28 76 96 0 47 -5 63 -26 88 -15 18 -35 31 -48 31 -59 0 -142 75
-756 687 -435 432 -531 523 -553 523 l-27 0 0 160 0 160 413 0 412 0 205 206
c216 217 442 432 505 479 24 19 51 30 77 31 84 4 133 103 91 184 -24 47 -63
65 -107 50 -45 -14 -73 -47 -97 -111 -30 -79 -102 -161 -413 -476 l-279 -283
-404 0 -403 0 2 162 3 163 120 -3 c146 -4 177 -12 234 -57 53 -42 71 -43 117
-8 64 48 79 103 44 160 -26 44 -78 58 -134 37 -88 -33 -144 -44 -263 -50
l-123 -7 0 166 0 167 198 0 197 0 126 -127 c146 -149 161 -168 184 -247 20
-73 68 -126 113 -126 22 0 40 11 70 44 23 25 44 56 48 71 14 57 -38 115 -119
130 -51 10 -129 70 -257 199 l-105 106 -227 0 -228 0 0 171 0 171 139 -4 c128
-3 142 -5 168 -26 47 -38 112 -64 141 -57 39 9 71 43 83 87 8 32 7 46 -8 76
-10 20 -29 43 -43 50 -34 18 -106 9 -139 -17 -44 -35 -68 -41 -207 -48 l-134
-6 0 86 0 87 475 0 475 0 0 118 0 118 67 84 c84 105 427 451 506 510 37 28 74
46 105 51 83 15 113 79 77 165 -16 40 -70 68 -110 58 -42 -10 -83 -57 -96
-109 -18 -70 -101 -169 -338 -405 l-206 -205 -3 145 -3 145 241 238 c250 247
345 327 387 327 13 0 34 5 46 11 37 19 97 82 97 101 0 45 -91 128 -141 128
-35 0 -95 -56 -104 -96 -17 -82 -117 -205 -389 -474 l-136 -135 0 168 0 167
-166 0 c-98 0 -164 4 -162 9 16 46 411 447 543 553 78 62 114 82 164 93 44 9
111 76 111 112 0 33 -39 84 -85 113 l-36 22 -40 -26 c-43 -29 -75 -73 -85
-121 -10 -45 -49 -96 -186 -245 -155 -168 -430 -423 -525 -489 -29 -20 -42
-21 -143 -19 l-110 3 218 230 c228 240 545 545 645 621 33 24 69 44 82 44 35
0 83 46 91 85 9 48 -12 102 -46 120 -79 41 -163 1 -176 -81 -4 -30 -20 -64
-48 -102 -143 -194 -676 -724 -889 -885 l-49 -37 -114 0 c-111 0 -114 1 -104
20 6 10 150 161 322 335 l311 316 -7 262 c-8 308 -1 391 40 444 18 24 29 52
32 84 4 43 1 51 -26 79 -26 26 -38 30 -82 30 -44 0 -56 -4 -82 -30 -28 -29
-30 -35 -26 -86 3 -38 11 -61 27 -78 33 -35 41 -113 41 -417 l0 -276 -288
-284 c-158 -156 -319 -310 -358 -341 l-71 -58 -207 0 -206 0 0 128 0 128 273
270 c348 346 439 424 494 424 32 0 84 40 99 76 19 46 5 93 -37 129 -36 30 -73
32 -112 6 -36 -23 -53 -48 -62 -89 -12 -55 -114 -172 -427 -488 l-298 -301 0
-141 0 -142 -408 0 -407 0 -150 150 -150 150 -232 0 -233 0 0 -812 0 -812 328
-330 c181 -182 343 -352 360 -377 17 -26 35 -66 38 -90 9 -56 50 -99 94 -99
62 0 130 57 130 109 0 53 -68 121 -121 121 -39 0 -136 85 -457 404 l-294 291
4 757 c2 417 8 761 12 765 4 4 75 11 159 15 l152 7 125 -125 125 -124 -278 0
-277 0 2 -552 3 -553 429 -5 429 -5 49 -56 48 -56 -2 -318 -3 -318 -47 60
c-26 33 -50 73 -54 89 -19 78 -69 124 -136 124 -55 0 -88 -44 -88 -117 0 -47
4 -59 29 -84 22 -22 39 -29 67 -29 40 0 66 -16 172 -109 l62 -55 0 -438 0
-438 -670 0 -670 0 0 1430 0 1430 -25 0 -24 0 5 203 c8 292 14 335 58 401 20
30 36 63 36 73 0 20 -52 81 -92 107 -24 16 -29 16 -56 2 -17 -9 -44 -29 -61
-46 -38 -39 -42 -93 -10 -134 28 -36 37 -128 40 -395 l1 -206 -288 -2 -289 -2
45 40 c93 84 146 119 194 128 52 10 91 40 101 78 15 63 -47 143 -112 143 -48
0 -113 -63 -113 -108 0 -33 -47 -98 -157 -216 l-62 -66 -143 0 -143 0 523 523
522 522 0 755 c0 415 5 835 10 932 8 163 10 180 34 221 29 50 36 140 12 172
-17 23 -110 32 -146 13z m-1070 -4033 l0 -385 -35 0 c-28 0 -74 28 -267 165
l-232 165 206 0 c252 0 295 5 302 34 3 11 6 84 7 161 3 152 9 245 15 245 2 0
4 -173 4 -385z"/>
</g>
<g transform="translate(0.000000,1002.000000) scale(0.100000,-0.100000)"
fill="#ffffff" stroke="none">
<path d="M4515 9831 c-77 -47 -82 -74 -33 -171 33 -65 42 -98 50 -168 11 -102
6 -1629 -6 -1654 -4 -9 -15 -20 -24 -24 -9 -5 -170 -10 -357 -12 l-340 -3
-485 488 c-555 557 -720 735 -720 772 0 28 -34 83 -61 96 -85 45 -182 -26
-165 -119 8 -40 56 -86 90 -86 53 0 212 -146 819 -752 l478 -478 404 7 c222 5
406 10 408 13 3 3 11 394 17 870 6 476 15 895 20 932 6 43 18 81 34 105 42 63
39 118 -8 167 -38 41 -74 46 -121 17z"/>

<path d="M5310 9843 c-64 -23 -77 -91 -34 -174 27 -50 27 -53 35 -352 4 -166
8 -585 8 -932 l1 -630 237 -234 c387 -381 585 -571 596 -571 21 0 157 130 727
695 592 586 955 934 994 953 11 6 33 13 48 16 15 3 43 21 62 40 48 45 50 100
7 148 -26 29 -35 33 -81 33 -46 0 -55 -4 -81 -33 -16 -18 -29 -43 -29 -56 0
-36 -42 -91 -205 -266 -162 -175 -1352 -1362 -1410 -1405 l-35 -27 -32 27
c-46 38 -718 706 -718 714 0 3 -1 391 -2 861 -2 901 0 952 43 1009 39 53 28
164 -17 181 -27 11 -89 12 -114 3z"/>
<path d="M4093 9755 c-48 -51 -55 -87 -24 -126 10 -13 29 -44 42 -69 23 -44
24 -53 27 -310 l3 -265 -186 -185 -186 -185 -318 321 c-175 176 -321 329 -324
340 -3 10 -8 41 -12 67 -14 101 -98 127 -179 57 -38 -34 -48 -67 -35 -115 12
-43 37 -64 99 -80 29 -8 75 -32 108 -57 31 -24 192 -177 357 -340 l301 -297
227 227 227 227 0 265 c1 283 7 336 45 382 41 48 34 92 -20 145 -62 59 -93 59
-152 -2z"/>
<path d="M3733 9711 c-51 -24 -63 -45 -63 -113 0 -42 6 -62 30 -96 35 -53 44
-113 38 -267 -4 -105 -7 -119 -37 -176 -29 -55 -33 -71 -29 -118 6 -67 22 -81
99 -81 49 0 61 4 88 29 39 36 41 81 7 132 -35 52 -48 143 -44 317 l3 150 28
22 c23 18 27 29 27 73 0 61 -25 109 -69 132 -36 18 -27 19 -78 -4z"/>
<path d="M6106 9710 c-62 -40 -75 -122 -30 -198 38 -65 43 -181 44 -1027 1
-764 10 -1109 28 -1127 16 -16 116 78 706 661 620 612 736 719 835 768 59 30
76 43 88 71 13 31 13 40 -2 78 -16 43 -65 94 -89 94 -43 0 -126 -91 -126 -138
0 -34 -53 -101 -200 -257 -194 -204 -777 -789 -975 -978 l-180 -172 -6 85
c-10 130 -23 1766 -15 1843 6 56 13 74 42 108 19 23 37 53 41 67 8 33 -18 81
-60 108 -49 33 -69 36 -101 14z"/>
<path d="M6579 9537 c-36 -24 -57 -70 -58 -123 -1 -46 -41 -81 -109 -95 -82
-16 -80 -15 -102 -51 -26 -42 -25 -92 1 -134 41 -67 96 -73 151 -16 42 43 58
78 51 113 -7 39 52 86 119 95 77 10 108 44 108 119 0 49 -4 60 -29 86 -37 36
-84 39 -132 6z"/>
<path d="M7106 9277 c-14 -14 -26 -42 -30 -70 -9 -60 -79 -149 -232 -297 -158
-153 -242 -218 -305 -236 -36 -11 -65 -28 -87 -52 -29 -30 -33 -41 -28 -70 11
-70 82 -112 154 -92 47 12 57 23 66 72 11 61 83 156 236 308 158 159 258 240
296 240 36 0 98 35 113 64 21 38 8 106 -24 133 -38 33 -126 33 -159 0z"/>
<path d="M5710 9068 c-64 -23 -81 -116 -35 -194 35 -59 45 -168 45 -490 0
-330 -11 -458 -47 -533 -34 -73 -29 -133 16 -173 17 -15 40 -28 51 -28 35 0
86 26 109 56 29 37 24 90 -16 146 l-28 41 -3 401 c-4 484 -1 529 40 591 25 37
29 53 25 82 -12 73 -93 125 -157 101z"/>
<path d="M2176 8980 c-30 -33 -36 -48 -36 -84 0 -57 42 -103 102 -112 70 -12
169 -103 938 -870 l565 -564 95 -1 c117 0 181 -10 212 -33 12 -9 38 -28 57
-41 49 -36 84 -32 132 13 43 40 58 86 39 122 -15 28 -88 80 -112 80 -11 0 -40
-14 -65 -31 -58 -40 -120 -59 -193 -59 -51 0 -65 5 -121 42 -75 49 -1220 1189
-1342 1335 -45 56 -80 108 -86 131 -15 54 -81 112 -129 112 -11 0 -36 -18 -56
-40z"/>
<path d="M6903 8665 c-37 -16 -70 -64 -79 -115 -19 -107 -177 -257 -291 -275
-102 -16 -139 -135 -62 -199 64 -54 157 -20 180 67 31 119 202 289 313 312 40
8 106 76 106 107 0 67 -103 131 -167 103z"/>
<path d="M8082 8651 c-41 -30 -82 -87 -82 -114 0 -29 -123 -170 -325 -372
-196 -196 -306 -292 -322 -282 -16 10 -89 -30 -107 -58 -35 -53 -19 -122 34
-150 80 -42 170 6 170 91 0 14 17 51 37 81 45 68 352 385 466 481 88 74 123
95 175 107 42 9 122 83 122 113 0 26 -61 97 -101 117 -25 13 -30 12 -67 -14z"/>
<path d="M4096 8634 c-22 -23 -38 -51 -42 -73 -11 -66 -16 -73 -103 -160 -86
-87 -155 -131 -203 -131 -14 0 -37 -9 -52 -21 -22 -17 -26 -28 -26 -69 0 -27
4 -60 10 -74 12 -31 58 -56 106 -56 49 0 104 53 104 102 1 54 36 116 109 189
68 68 134 108 179 109 37 0 80 28 98 62 34 66 -28 158 -106 158 -32 0 -46 -7
-74 -36z"/>
<path d="M1340 8252 c-30 -24 -38 -97 -16 -144 32 -66 104 -77 181 -26 46 31
56 33 152 36 l103 4 0 -184 0 -184 267 -274 c337 -347 443 -466 443 -497 0
-101 134 -150 203 -73 33 37 34 73 6 120 -27 44 -45 57 -91 65 -20 4 -58 22
-85 40 -26 18 -193 174 -370 347 l-321 313 -1 201 -1 202 -123 4 c-119 4 -126
5 -174 36 -59 38 -135 44 -173 14z"/>
<path d="M2128 7860 c-55 -48 -73 -86 -59 -122 13 -34 66 -73 117 -87 28 -7
72 -38 145 -103 136 -119 666 -649 801 -802 106 -118 132 -156 143 -209 7 -36
58 -67 108 -67 31 0 46 7 73 34 69 69 30 157 -83 189 -49 14 -75 31 -168 114
-134 119 -537 521 -699 697 -155 170 -206 235 -206 266 0 48 -75 130 -118 130
-5 0 -29 -18 -54 -40z"/>
<path d="M2939 7871 c-46 -25 -71 -62 -71 -106 0 -64 40 -99 135 -120 40 -8
207 -157 408 -362 188 -193 252 -277 263 -342 8 -50 26 -61 101 -61 50 0 60 4
87 30 27 27 30 36 25 72 -7 54 -48 95 -113 114 -69 20 -192 123 -409 345 -190
194 -253 270 -288 350 -35 80 -85 108 -138 80z"/>
<path d="M1248 7672 c-166 -158 -199 -184 -246 -189 -57 -5 -91 -23 -107 -54
-40 -76 6 -157 99 -174 59 -12 91 20 110 107 15 67 196 287 267 324 28 14 29
13 141 -90 173 -159 482 -476 517 -531 17 -27 31 -59 31 -72 0 -13 7 -39 15
-59 36 -86 202 -80 226 8 14 54 -43 132 -111 153 -56 17 -154 100 -380 321
-236 230 -402 384 -416 384 -7 0 -72 -58 -146 -128z"/>
<path d="M7693 7480 c-36 -21 -57 -57 -67 -112 -12 -68 -137 -211 -221 -252
-16 -8 -47 -18 -68 -21 -44 -7 -102 -54 -111 -90 -8 -33 16 -89 48 -110 33
-22 122 -22 146 0 10 9 21 35 24 57 16 102 161 263 259 289 98 26 147 68 147
127 0 38 -31 93 -64 113 -39 24 -53 24 -93 -1z"/>
<path d="M933 7070 c-71 -43 -62 -155 14 -187 32 -13 45 -14 82 -4 24 6 57 21
74 33 18 13 51 23 83 26 47 4 57 1 98 -28 56 -40 126 -51 174 -26 39 20 57 74
41 129 -21 78 -103 92 -197 34 -100 -62 -133 -61 -207 3 -38 33 -54 40 -88 40
-24 0 -56 -8 -74 -20z"/>
<path d="M9284 6289 c-44 -13 -65 -40 -81 -110 -17 -73 -53 -129 -125 -194
-58 -52 -125 -89 -179 -99 -50 -9 -59 -23 -66 -104 -5 -66 -4 -71 18 -85 25
-16 45 -20 93 -18 40 1 106 69 106 108 0 86 184 268 291 287 46 8 79 44 86 93
11 87 -58 146 -143 122z"/>
<path d="M534 5878 c-29 -14 -49 -53 -46 -90 5 -65 42 -102 119 -118 47 -10
130 -62 168 -105 67 -76 103 -138 109 -185 9 -71 47 -110 106 -110 101 0 151
84 100 168 -21 34 -36 42 -107 61 -31 9 -65 33 -127 92 -97 92 -142 153 -151
209 -12 74 -99 113 -171 78z"/>
<path d="M914 5856 c-20 -20 -34 -44 -34 -58 0 -60 69 -128 131 -128 37 0 108
-50 180 -127 65 -70 98 -129 99 -175 0 -16 12 -41 29 -60 24 -27 36 -33 70
-32 78 2 130 66 111 136 -13 45 -38 68 -90 79 -57 13 -112 52 -195 141 -73 76
-95 113 -115 185 -13 51 -47 73 -111 73 -33 0 -47 -6 -75 -34z"/>
<path d="M199 5817 c-19 -12 -43 -38 -53 -58 -17 -31 -17 -38 -5 -64 16 -34
76 -70 130 -79 77 -12 200 -142 214 -225 13 -80 80 -129 148 -110 47 13 67 42
67 101 0 61 -17 97 -49 104 -82 19 -109 29 -146 55 -68 49 -125 135 -125 190
0 52 -63 109 -123 109 -13 0 -39 -10 -58 -23z"/>
<path d="M9586 5809 c-14 -17 -26 -41 -26 -54 0 -12 -20 -49 -43 -81 -87 -118
-460 -503 -560 -579 l-39 -29 -35 19 c-38 21 -134 125 -187 203 -19 29 -40 76
-46 106 -15 72 -36 89 -114 94 -60 4 -63 3 -89 -28 -42 -49 -38 -102 12 -151
25 -26 48 -39 65 -39 49 0 105 -39 242 -170 75 -72 145 -130 154 -130 21 0
100 72 358 323 234 227 317 295 400 326 70 25 94 52 94 105 0 71 -43 115 -114
116 -40 0 -50 -4 -72 -31z"/>
<path d="M5292 5090 c-38 -24 -56 -62 -47 -106 9 -50 40 -81 98 -98 69 -20
179 -109 362 -293 222 -222 331 -359 350 -438 10 -43 21 -53 69 -60 90 -14
153 40 143 122 -6 59 -37 88 -101 97 -34 5 -65 22 -117 61 -152 114 -444 410
-536 542 -20 30 -39 72 -44 100 -12 63 -45 93 -102 93 -24 0 -56 -8 -75 -20z"/>
<path d="M9668 5094 c-30 -16 -52 -51 -63 -102 -12 -55 -133 -189 -580 -643
-233 -236 -446 -456 -474 -488 l-52 -59 49 -59 c27 -32 166 -178 310 -325 294
-302 332 -345 332 -379 0 -51 74 -129 122 -129 46 0 117 106 102 154 -11 37
-45 64 -88 71 -22 4 -61 18 -86 33 -48 27 -401 369 -552 535 l-89 98 29 37
c90 113 764 779 976 965 72 63 94 77 113 72 33 -8 78 19 97 59 53 111 -43 217
-146 160z"/>
<path d="M5294 4691 c-64 -39 -63 -124 2 -180 26 -23 44 -31 73 -31 34 0 48
-8 109 -65 95 -88 160 -176 169 -228 12 -78 86 -116 158 -81 50 23 72 72 56
125 -15 48 -50 76 -107 85 -107 16 -284 191 -284 281 0 39 -19 73 -52 93 -41
25 -84 25 -124 1z"/>
<path d="M9633 4679 c-26 -14 -53 -66 -53 -106 0 -42 -51 -123 -111 -177 -64
-58 -90 -71 -151 -80 -86 -13 -132 -78 -108 -151 16 -48 51 -69 115 -69 59 -1
95 21 95 59 0 34 45 115 104 187 72 87 107 111 168 114 27 1 60 9 73 18 48 32
52 143 7 189 -24 23 -106 33 -139 16z"/>
<path d="M189 4281 c-23 -23 -29 -38 -29 -71 0 -114 96 -156 196 -85 63 45 96
45 153 0 32 -25 54 -35 80 -35 83 0 137 75 111 154 -16 49 -44 66 -106 66 -43
0 -56 -4 -71 -23 -44 -56 -103 -59 -168 -7 -30 24 -47 30 -87 30 -41 0 -54 -5
-79 -29z"/>
<path d="M9535 3913 c-11 -3 -29 -13 -40 -23 -43 -37 -70 -44 -211 -48 -158
-5 -224 5 -280 43 -26 18 -50 25 -84 25 -57 0 -86 -26 -96 -86 -16 -104 89
-169 178 -109 48 33 113 46 233 48 145 2 207 -9 251 -44 63 -50 144 -36 179
31 32 62 6 128 -61 156 -35 15 -36 15 -69 7z"/>
<path d="M8473 3504 c-33 -16 -63 -66 -63 -104 0 -46 69 -110 118 -110 76 0
495 -418 522 -521 22 -81 56 -109 131 -109 81 0 126 87 83 160 -20 33 -57 56
-107 65 -52 10 -102 49 -255 199 -176 173 -238 249 -252 310 -14 61 -33 91
-75 110 -41 20 -61 20 -102 0z"/>
<path d="M927 3490 c-36 -28 -52 -81 -37 -124 15 -46 38 -64 94 -75 60 -11
124 -55 263 -180 204 -183 425 -439 438 -506 15 -77 43 -105 102 -105 54 0
123 63 123 112 0 49 -69 118 -119 118 -41 0 -126 73 -361 309 -217 217 -320
336 -320 368 0 29 -31 80 -56 92 -39 18 -98 13 -127 -9z"/>
<path d="M1315 3490 c-11 -12 -20 -41 -23 -73 -6 -70 20 -102 97 -122 29 -7
72 -26 95 -42 22 -15 185 -170 361 -344 l320 -316 315 -7 c179 -3 332 -11 355
-17 22 -6 59 -24 82 -40 93 -65 183 -13 170 99 -6 59 -40 93 -98 99 -39 4 -49
1 -89 -31 -67 -53 -110 -59 -397 -54 l-251 4 -41 28 c-95 66 -574 539 -656
648 -25 33 -45 71 -45 84 0 37 -21 74 -51 90 -43 22 -122 18 -144 -6z"/>
<path d="M4098 3500 c-23 -14 -41 -75 -34 -115 4 -19 18 -48 33 -65 24 -30 26
-40 34 -188 11 -208 10 -1359 0 -1490 -8 -86 -13 -109 -35 -141 -44 -63 -32
-147 25 -176 40 -21 88 -13 129 21 39 33 40 80 3 160 l-28 59 -3 750 c-3 837
2 965 43 1026 45 68 28 133 -41 159 -32 13 -104 12 -126 0z"/>
<path d="M5680 3492 c-13 -11 -25 -36 -31 -65 -12 -64 -47 -112 -199 -274
l-130 -138 0 -800 0 -800 271 -270 c372 -371 459 -471 459 -534 0 -60 51 -99
115 -87 47 9 105 65 105 102 0 56 -67 124 -122 124 -41 0 -119 69 -450 399
l-298 295 0 782 0 781 113 111 c122 118 195 172 236 172 15 0 41 9 59 20 71
43 81 142 19 180 -41 26 -117 27 -147 2z"/>
<path d="M6067 3496 c-8 -8 -17 -38 -20 -67 -8 -64 -54 -136 -135 -210 -58
-53 -87 -69 -159 -88 -62 -17 -103 -68 -103 -129 0 -26 4 -52 8 -58 13 -21 77
-54 103 -54 49 0 109 68 109 123 0 76 202 277 279 277 15 0 41 9 59 20 71 43
81 142 19 180 -39 24 -138 28 -160 6z"/>
<path d="M563 3087 c-68 -68 -68 -86 -3 -149 58 -56 92 -62 137 -24 38 32 93
46 182 46 54 0 86 -5 115 -20 24 -11 107 -86 196 -175 l155 -155 -80 -80
c-101 -102 -151 -136 -214 -144 -83 -11 -131 -85 -101 -157 25 -59 82 -83 144
-59 30 11 66 64 66 96 0 31 78 132 188 246 l94 97 -122 131 c-123 130 -241
241 -292 274 -19 13 -55 20 -115 23 -109 6 -140 15 -216 64 -33 22 -65 39 -70
39 -6 0 -34 -24 -64 -53z"/>
<path d="M7689 3003 c-24 -20 -84 -76 -134 -124 -112 -108 -169 -149 -208
-149 -39 0 -89 -39 -111 -85 -17 -34 -17 -37 6 -78 29 -54 85 -84 131 -70 38
10 77 64 77 105 0 16 10 48 21 71 24 47 216 242 249 252 13 4 31 0 48 -11 47
-31 717 -706 765 -772 26 -35 47 -75 47 -88 0 -33 25 -79 52 -98 37 -26 103
-21 138 12 70 62 40 166 -53 189 -69 17 -150 86 -452 383 -315 310 -514 500
-524 500 -4 0 -27 -16 -52 -37z"/>
<path d="M7690 2718 c-36 -19 -47 -30 -54 -59 -12 -47 -1 -97 27 -133 19 -24
32 -29 69 -30 34 -2 56 -10 94 -38 74 -55 242 -230 259 -271 17 -40 20 -159 6
-220 -5 -22 -19 -49 -30 -61 -71 -75 -20 -196 81 -196 32 0 47 7 74 34 46 46
48 106 4 161 -16 21 -30 38 -31 39 0 0 -4 55 -9 122 -5 75 -14 132 -23 151 -9
17 -59 77 -112 134 -117 127 -183 213 -191 248 -11 49 -25 79 -52 104 -40 37
-62 40 -112 15z"/>
<path d="M6479 2699 c-75 -40 -164 -49 -490 -49 l-257 0 -7 -626 -7 -625 339
-342 c374 -377 443 -455 470 -537 14 -44 25 -59 53 -73 44 -23 114 -18 141 10
28 27 34 81 14 126 -13 32 -26 43 -78 66 -86 39 -175 118 -539 480 l-318 315
0 574 0 575 278 -7 c152 -3 295 -11 317 -17 22 -6 59 -24 82 -40 58 -40 101
-39 147 5 28 26 36 41 36 68 0 33 -37 103 -64 120 -22 15 -62 7 -117 -23z"/>
<path d="M6115 2331 c-36 -15 -58 -49 -62 -98 -7 -75 7 -99 69 -117 36 -10 80
-37 138 -83 100 -79 947 -922 1008 -1004 24 -32 48 -79 56 -108 16 -61 36 -86
82 -101 75 -25 144 31 144 117 0 60 -30 91 -97 102 -38 6 -65 18 -100 46 -71
57 -853 841 -972 974 -56 63 -104 126 -107 140 -12 59 -42 108 -77 124 -38 19
-52 20 -82 8z"/>
<path d="M6904 2320 c-44 -20 -74 -64 -74 -108 0 -43 42 -90 88 -98 20 -3 53
-16 72 -28 88 -53 357 -300 538 -495 171 -184 248 -284 274 -354 25 -68 57
-97 106 -97 28 0 43 8 74 40 64 68 51 127 -37 166 -71 31 -219 160 -499 434
-289 283 -371 376 -379 427 -8 46 -56 107 -96 121 -22 8 -37 6 -67 -8z"/>
<path d="M1716 2299 c-14 -17 -26 -40 -26 -52 -1 -45 -43 -112 -113 -181 -76
-75 -114 -99 -185 -116 -32 -8 -50 -21 -72 -52 -37 -51 -38 -75 -2 -124 43
-58 57 -67 96 -60 46 9 91 62 111 131 20 67 86 157 153 208 51 38 81 51 144
62 55 9 92 56 85 110 -8 59 -61 105 -121 105 -37 0 -48 -5 -70 -31z"/>
<path d="M4909 2315 c-62 -34 -77 -112 -35 -174 33 -47 46 -134 46 -303 0
-170 -14 -277 -46 -347 -29 -65 -30 -86 -4 -129 39 -63 115 -66 175 -6 43 43
44 69 4 128 -17 25 -34 58 -38 74 -15 50 -22 275 -13 397 8 106 13 127 41 179
33 63 37 86 20 134 -20 57 -91 79 -150 47z"/>
<path d="M1949 2038 c-223 -222 -329 -308 -376 -308 -14 0 -37 -13 -54 -29
-57 -57 -27 -154 55 -181 70 -23 124 17 137 99 11 74 49 122 278 354 l205 207
573 0 573 0 0 -647 c-1 -761 -6 -883 -44 -947 -47 -81 -27 -160 50 -192 40
-17 68 -8 109 36 39 41 42 103 6 150 -15 21 -26 55 -32 99 -5 36 -13 403 -18
814 -5 411 -10 750 -12 752 -2 2 -278 6 -614 10 l-610 6 -226 -223z"/>
<path d="M2945 1933 c-11 -3 -29 -13 -40 -23 -41 -38 -76 -43 -285 -48 -228
-4 -301 4 -357 43 -45 30 -116 34 -149 7 -53 -42 -59 -114 -16 -163 24 -27 37
-33 85 -37 50 -4 58 -2 83 23 15 16 44 32 63 36 48 11 456 11 503 0 21 -5 51
-21 69 -35 88 -75 218 14 178 121 -21 55 -81 89 -134 76z"/>
<path d="M6073 1904 c-23 -23 -25 -31 -21 -84 5 -71 25 -98 80 -107 54 -8 134
-69 285 -216 234 -227 397 -419 422 -499 16 -49 63 -88 106 -88 61 0 135 88
121 144 -8 33 -80 86 -116 86 -36 0 -102 50 -268 203 -221 203 -412 418 -412
463 0 37 -25 89 -51 108 -14 9 -43 16 -72 16 -38 0 -53 -5 -74 -26z"/>
<path d="M2950 1532 c-14 -2 -34 -12 -45 -22 -47 -42 -64 -45 -288 -48 -259
-5 -293 -1 -343 39 -47 37 -127 42 -163 8 -50 -47 -53 -106 -8 -154 48 -53 90
-56 164 -14 l58 34 214 4 c264 4 308 -1 357 -40 71 -56 160 -31 185 51 25 82
-43 155 -131 142z"/>
<path d="M2314 1150 c-11 -5 -37 -24 -57 -43 -30 -27 -37 -42 -37 -71 0 -52
25 -95 65 -112 48 -20 57 -18 133 18 62 30 75 33 195 36 142 5 220 -6 309 -44
32 -13 67 -24 78 -24 58 0 96 103 65 176 -9 21 -21 42 -28 46 -27 17 -83 7
-127 -22 -56 -37 -130 -54 -245 -54 -116 0 -193 18 -245 55 -53 38 -80 48
-106 39z"/>
<path d="M4140 796 c0 -145 -4 -286 -10 -315 -5 -29 -25 -73 -45 -103 -19 -29
-35 -63 -35 -75 0 -33 61 -106 97 -116 40 -12 87 13 120 63 30 43 29 81 -2
118 -38 45 -44 99 -45 365 l0 247 169 0 168 0 274 -278 c288 -291 379 -399
400 -470 18 -63 49 -92 99 -92 68 0 140 53 140 103 0 53 -79 127 -136 127 -48
0 -140 79 -461 394 l-301 296 -216 0 -216 0 0 -264z"/>
<path d="M4489 711 c-55 -55 -55 -100 1 -167 64 -77 65 -127 4 -198 -40 -46
-49 -84 -34 -131 25 -76 115 -102 171 -49 29 28 59 74 59 91 0 5 -20 40 -45
77 -63 96 -61 130 17 243 35 52 31 79 -22 134 -30 32 -44 39 -75 39 -30 0 -45
-7 -76 -39z"/>
</g>
</svg>
